<?xml version="1.0" standalone="no"?>
<!DOCTYPE svg PUBLIC "-//W3C//DTD SVG 20010904//EN"
 "http://www.w3.org/TR/2001/REC-SVG-20010904/DTD/svg10.dtd">
<svg version="1.0" xmlns="http://www.w3.org/2000/svg"
 width="512.000000pt" height="512.000000pt" viewBox="0 0 512.000000 512.000000"
 preserveAspectRatio="xMidYMid meet">
<metadata>
Created by potrace 1.11, written by Peter Selinger 2001-2013
</metadata>
<g transform="translate(0.000000,512.000000) scale(0.100000,-0.100000)"
fill="#000000" stroke="none">
<path d="M2310 4950 c-47 -10 -103 -21 -125 -25 -62 -10 -80 -13 -80 -15 0 -1
-9 -3 -20 -5 -82 -16 -87 -17 -180 -44 -38 -12 -87 -28 -108 -36 -21 -9 -43
-13 -48 -10 -5 4 -9 2 -9 -3 0 -5 -19 -15 -42 -22 -24 -8 -48 -17 -54 -22 -6
-4 -14 -5 -17 -1 -4 3 -7 1 -7 -5 0 -7 -3 -11 -7 -10 -11 3 -150 -63 -200 -95
-22 -14 -44 -23 -47 -20 -3 4 -6 1 -6 -5 0 -7 -5 -12 -11 -12 -12 0 -91 -53
-148 -100 -13 -11 -30 -20 -38 -20 -7 0 -13 -4 -13 -8 0 -4 -41 -32 -91 -61
-70 -41 -120 -82 -221 -182 -72 -71 -129 -129 -126 -129 3 0 -7 -14 -22 -30
-16 -17 -66 -86 -111 -153 -46 -67 -87 -125 -93 -129 -6 -4 -7 -8 -3 -8 5 0
-1 -14 -13 -30 -50 -71 -237 -511 -225 -530 3 -5 2 -10 -3 -10 -6 0 -13 -15
-16 -32 -3 -18 -9 -44 -12 -58 -3 -14 -7 -33 -7 -42 -1 -10 -6 -18 -11 -18 -5
0 -7 -3 -4 -6 4 -3 2 -20 -4 -37 -5 -18 -11 -39 -13 -47 -2 -8 -4 -16 -5 -17
-2 -2 -3 -6 -4 -10 -1 -5 -4 -12 -7 -18 -3 -5 -7 -93 -8 -195 -2 -102 -7 -186
-12 -188 -14 -5 -11 -109 6 -178 8 -33 14 -69 15 -80 3 -54 10 -121 14 -140 2
-12 7 -39 11 -60 8 -45 13 -68 15 -71 2 -2 3 -6 4 -10 10 -41 43 -139 81 -238
26 -66 48 -124 49 -130 2 -11 49 -111 99 -215 18 -36 36 -68 40 -71 5 -3 7 -8
5 -11 -1 -2 18 -40 44 -84 26 -43 50 -88 54 -99 31 -82 241 -326 373 -435 24
-19 53 -45 64 -57 31 -31 235 -179 277 -200 19 -10 37 -20 40 -23 3 -3 19 -12
35 -20 17 -8 32 -18 35 -22 21 -28 480 -209 480 -190 0 4 4 1 8 -6 5 -7 28
-14 53 -17 24 -2 44 -4 44 -5 0 -4 46 -12 90 -15 55 -4 68 -6 170 -26 51 -10
158 -14 385 -14 287 1 374 6 480 31 14 3 41 8 60 10 62 10 62 10 115 30 11 4
22 8 25 8 17 4 95 39 235 107 162 79 209 104 233 127 7 7 17 10 22 7 5 -3 10
-2 12 3 1 4 47 38 101 75 53 38 97 73 97 78 0 6 5 7 10 4 20 -12 302 284 399
420 51 71 98 140 104 152 6 13 14 23 19 23 5 0 7 4 4 9 -4 5 -2 11 2 13 11 4
73 110 108 183 16 33 33 63 39 67 5 4 7 8 3 8 -3 0 6 26 21 58 15 31 36 80 46
107 9 28 20 57 23 65 6 17 8 26 16 60 3 14 8 36 11 50 20 77 26 163 31 432 4
240 -1 288 -33 288 -15 0 -14 4 -19 -75 -7 -124 -18 -220 -30 -276 -2 -13 -7
-40 -10 -59 -24 -176 -87 -399 -119 -422 -5 -4 -7 -8 -3 -8 9 0 -102 -214
-113 -218 -5 -2 -7 -7 -5 -11 3 -3 -18 -40 -45 -80 -27 -41 -49 -78 -49 -82 0
-5 -3 -9 -7 -9 -5 0 -19 -17 -33 -38 -23 -35 -95 -125 -146 -182 -91 -103
-130 -145 -212 -226 -51 -51 -109 -106 -130 -121 -20 -15 -39 -31 -42 -34 -6
-7 -149 -110 -175 -126 -31 -18 -186 -95 -199 -98 -6 -1 -29 -10 -51 -20 -22
-9 -44 -18 -50 -19 -5 -1 -62 -18 -125 -38 -63 -20 -133 -39 -155 -42 -43 -8
-52 -10 -75 -19 -8 -3 -28 -6 -45 -6 -27 0 -54 -4 -110 -15 -11 -3 -20 -5 -20
-6 0 -11 -407 -15 -480 -4 -22 3 -53 7 -70 9 -16 1 -30 4 -30 5 0 1 -13 3 -30
6 -37 5 -70 12 -70 14 0 1 -16 3 -35 4 -41 4 -69 9 -187 37 -75 18 -111 28
-191 54 -7 3 -13 3 -15 2 -2 -1 -15 6 -30 16 -15 9 -27 15 -27 12 0 -4 -12 0
-27 9 -16 8 -62 31 -103 52 -116 57 -205 107 -208 116 -2 4 -8 8 -14 8 -5 0
-29 14 -53 30 -24 17 -46 30 -49 30 -3 0 -14 6 -23 14 -199 162 -332 291 -428
411 -22 28 -44 53 -50 57 -6 4 -6 8 -1 8 6 0 -2 12 -16 27 -25 27 -59 86 -57
99 0 4 -3 10 -8 13 -10 6 -39 62 -106 201 -65 135 -89 196 -92 235 -6 70 -29
151 -47 166 -11 11 -18 27 -17 41 2 13 0 29 -4 35 -5 7 -10 31 -13 54 -3 23
-11 51 -18 63 -7 12 -12 46 -11 79 0 32 -2 60 -5 62 -4 2 -5 28 -3 57 3 29 4
58 4 63 -4 52 -6 482 -2 490 7 13 10 30 16 85 2 25 7 56 10 70 3 14 7 34 9 45
7 47 30 132 48 172 10 23 19 46 20 50 1 5 8 14 15 21 7 8 11 18 8 23 -4 5 -2
9 3 9 5 0 24 35 43 78 18 42 48 105 66 140 19 34 30 62 26 62 -4 0 3 7 15 16
12 8 22 23 22 32 0 17 55 136 72 156 5 6 42 56 82 111 79 106 337 367 441 445
33 25 62 48 65 51 3 4 15 9 28 13 12 4 22 12 22 17 0 6 5 7 10 4 6 -3 10 -2
10 3 0 5 6 9 13 9 28 1 128 33 195 62 40 16 72 28 72 24 0 -3 6 0 13 6 8 6 17
8 20 4 4 -3 7 -1 7 5 0 7 9 12 20 12 11 0 20 4 20 10 0 5 7 7 15 4 8 -4 15 -1
15 6 0 6 5 8 10 5 6 -3 10 -1 10 5 0 6 5 8 10 5 6 -4 32 0 58 9 92 30 243 66
252 61 5 -3 12 0 15 6 4 5 13 8 20 5 7 -2 16 -2 20 2 4 4 19 8 33 9 88 8 102
10 107 15 4 3 26 4 50 2 24 -2 46 -1 48 3 6 9 644 2 655 -7 1 -1 10 -3 20 -4
9 -1 22 -4 27 -7 6 -3 33 -5 60 -4 28 1 55 -1 60 -4 6 -3 15 -6 20 -6 22 -2
102 -28 198 -66 56 -22 107 -41 112 -43 17 -3 130 -50 135 -55 5 -6 12 -10 89
-53 113 -63 391 -280 391 -305 0 -7 4 -13 9 -13 23 0 331 -417 331 -449 0 -6
4 -11 9 -11 4 0 25 -36 45 -80 20 -44 52 -105 71 -134 19 -30 31 -56 28 -60
-4 -3 -1 -6 5 -6 7 0 12 -5 12 -10 0 -11 59 -142 85 -190 7 -14 13 -27 13 -30
1 -3 3 -12 6 -20 5 -18 19 -71 22 -85 1 -5 3 -12 4 -15 6 -16 20 -89 25 -125
1 -11 4 -22 5 -25 1 -3 3 -14 4 -25 14 -175 34 -299 58 -351 32 -73 66 -56
101 50 13 38 17 86 17 200 0 155 -3 171 -40 291 -12 39 -23 78 -23 88 -1 9 -6
17 -11 17 -5 0 -7 3 -3 6 11 11 -55 178 -139 354 -47 96 -89 182 -94 190 -6 8
-15 25 -20 38 -11 26 -58 95 -86 129 -46 53 -54 64 -54 73 0 6 -5 10 -10 10
-6 0 -14 8 -17 17 -4 9 -14 24 -22 33 -9 9 -29 32 -44 51 -92 112 -133 158
-144 158 -7 1 -20 12 -30 26 -22 31 -154 165 -162 165 -3 0 -20 14 -38 30 -18
17 -36 30 -40 30 -5 0 -26 15 -48 34 -22 19 -42 34 -45 33 -3 -1 -23 10 -45
24 -80 52 -184 107 -189 101 -3 -3 -6 0 -6 6 0 7 -3 11 -7 11 -5 -1 -11 0 -15
1 -5 1 -11 3 -15 5 -5 1 -42 18 -83 38 -67 31 -168 64 -225 72 -19 2 -29 5
-72 22 -10 3 -22 7 -28 8 -5 1 -12 3 -15 4 -14 7 -48 13 -72 13 -16 0 -28 3
-28 7 0 3 -10 7 -22 8 -13 0 -57 8 -98 17 -112 24 -581 21 -700 -4z"/>
<path d="M1225 3709 c-5 -5 -22 -19 -37 -30 -22 -16 -28 -28 -28 -60 0 -22 4
-38 9 -35 5 3 11 -4 14 -15 3 -11 15 -23 26 -26 12 -3 21 -8 21 -12 0 -4 71
-7 158 -7 122 0 156 -2 154 -12 -1 -7 4 -20 13 -28 8 -9 15 -23 15 -33 0 -21
22 -71 32 -71 4 0 5 -9 3 -20 -2 -11 1 -20 7 -20 5 0 8 -6 5 -14 -3 -8 1 -17
9 -20 9 -3 13 -10 10 -15 -3 -5 2 -26 13 -48 16 -33 41 -88 46 -103 1 -3 6
-20 10 -37 4 -18 11 -33 16 -33 5 0 9 -8 9 -18 0 -10 5 -23 12 -30 7 -7 8 -12
4 -12 -5 0 -4 -6 1 -12 6 -7 16 -30 22 -50 7 -21 16 -38 21 -38 4 0 6 -9 3
-20 -3 -12 0 -20 7 -20 7 0 10 -7 6 -15 -3 -9 1 -18 9 -22 10 -3 13 -12 10
-24 -4 -11 -2 -19 3 -19 5 0 13 -10 17 -22 4 -13 8 -25 9 -28 2 -3 6 -17 10
-32 5 -16 12 -28 18 -28 5 0 7 -3 4 -8 -2 -4 3 -23 11 -42 9 -19 17 -40 19
-47 1 -7 9 -27 18 -44 18 -37 22 -109 5 -109 -6 0 -9 -7 -5 -15 3 -8 1 -15 -4
-15 -6 0 -10 -7 -10 -15 0 -8 -5 -15 -11 -15 -5 0 -8 -4 -5 -9 3 -4 -4 -25
-14 -47 -11 -21 -20 -46 -20 -56 0 -9 -5 -20 -10 -23 -6 -4 -8 -11 -5 -16 4
-5 1 -9 -4 -9 -6 0 -11 -7 -11 -15 0 -8 -4 -15 -10 -15 -10 0 -10 -70 0 -80 3
-3 10 -14 16 -25 6 -11 15 -20 20 -20 5 0 15 -4 23 -9 17 -11 1446 -12 1481
-1 31 9 61 35 54 46 -3 5 0 9 5 9 13 0 11 50 -2 68 -5 6 -6 12 -3 12 11 0 -17
25 -39 35 -11 5 -311 9 -667 10 -356 1 -651 5 -655 9 -4 4 -2 16 5 27 7 11 10
24 7 29 -4 6 -2 10 3 10 6 0 16 20 23 45 7 25 20 47 29 49 8 2 53 4 99 3 48
-1 89 3 95 8 6 6 50 10 99 10 49 0 91 3 93 7 3 4 50 8 105 8 54 0 99 3 99 8 0
4 39 7 88 7 48 -1 92 3 99 7 6 5 54 9 107 10 53 0 98 4 101 7 2 4 41 7 87 6
46 -1 88 3 95 8 7 5 51 8 98 8 63 -1 95 4 118 16 18 9 38 16 45 15 7 -2 12 1
11 5 -3 16 14 73 21 73 5 0 7 13 6 30 -1 16 2 31 8 33 5 2 9 20 8 40 -1 20 3
39 8 42 6 3 10 17 10 30 0 13 4 26 9 30 5 3 8 16 5 30 -2 13 0 27 6 30 5 3 10
24 10 46 0 21 4 39 9 39 5 0 8 11 5 24 -2 14 0 28 6 31 5 3 10 19 10 35 0 16
4 32 10 35 5 3 8 16 6 28 -2 12 1 31 7 42 6 11 10 30 8 43 -1 12 3 22 9 22 6
0 10 6 9 13 -4 30 2 58 11 52 6 -4 10 12 10 42 0 41 -4 52 -30 73 -17 14 -34
25 -38 26 -4 0 -14 4 -22 7 -8 4 -440 8 -959 10 -933 2 -944 2 -947 22 -2 11
-7 21 -13 23 -5 2 -7 10 -4 18 3 8 0 14 -6 14 -6 0 -11 11 -11 25 0 14 -5 25
-11 25 -5 0 -8 4 -4 9 3 5 1 12 -4 15 -4 3 -11 18 -14 34 -5 25 -52 87 -66 87
-3 0 -5 3 -3 8 3 11 -391 8 -403 -4z m1145 -468 c8 -2 3 -231 -5 -239 -3 -4
-97 -7 -208 -8 -155 0 -205 2 -215 13 -7 7 -11 17 -8 22 4 5 1 11 -4 13 -6 2
-13 16 -16 32 -2 15 -11 35 -19 42 -8 8 -12 21 -9 28 3 8 -3 24 -13 35 -18 21
-24 52 -11 61 5 4 487 5 508 1z m518 -123 l3 -125 -171 0 c-116 0 -170 4 -171
11 -1 6 -2 61 -3 121 -1 78 3 111 11 115 7 3 83 5 170 4 l158 -1 3 -125z m655
123 c11 -2 8 -31 -4 -31 -6 0 -9 -10 -8 -22 2 -13 -1 -30 -6 -38 -5 -8 -10
-28 -11 -45 -5 -53 -12 -86 -23 -99 -8 -9 -62 -12 -218 -12 l-208 1 0 120 c-1
66 2 122 6 125 6 4 441 5 472 1z m-1170 -524 c-1 -56 -2 -109 -2 -117 -1 -13
-17 -15 -88 -15 -49 1 -95 -3 -104 -8 -25 -15 -69 0 -69 23 0 11 -4 20 -10 20
-5 0 -10 9 -10 19 0 11 -5 23 -10 26 -6 4 -8 11 -5 16 4 5 1 9 -4 9 -6 0 -11
11 -11 24 0 14 -5 28 -10 31 -6 4 -8 11 -5 16 4 5 1 9 -4 9 -18 0 -13 48 5 52
9 2 87 2 173 0 l156 -3 -2 -102z m271 100 c4 5 100 5 151 1 6 0 15 1 20 2 6 1
25 2 43 1 l32 -1 0 -94 0 -94 -32 0 c-18 1 -55 -3 -83 -7 -27 -5 -78 -8 -113
-7 -35 1 -73 -3 -84 -9 -11 -6 -22 -8 -26 -5 -3 4 -6 52 -7 107 -1 93 1 102
19 109 12 4 33 4 48 0 14 -5 29 -6 32 -3z m508 -1 c5 5 196 8 223 3 12 -2 14
-1 49 5 25 5 38 -15 17 -28 -4 -3 -6 -17 -3 -31 2 -15 0 -25 -7 -25 -7 0 -11
-12 -9 -27 2 -22 -1 -28 -19 -29 -12 -1 -30 -5 -40 -9 -10 -5 -54 -10 -98 -12
-44 -2 -108 -6 -141 -9 l-62 -6 2 84 1 83 30 6 c17 3 35 1 41 -3 6 -4 13 -5
16 -2z"/>
<path d="M2160 1988 c-65 -9 -72 -11 -104 -33 -75 -53 -145 -146 -137 -184 1
-7 -3 -26 -10 -42 -8 -21 -8 -33 -1 -42 6 -7 9 -25 8 -40 -2 -15 1 -27 5 -27
5 0 9 -10 9 -23 0 -12 9 -28 20 -35 12 -7 19 -16 16 -21 -13 -21 133 -124 162
-114 6 3 12 0 12 -6 0 -13 103 -15 128 -2 9 5 36 17 59 26 37 16 129 95 108
95 -4 0 2 8 13 19 12 10 22 28 22 39 0 11 4 23 9 26 4 3 7 17 6 31 -2 14 1 25
6 25 11 0 12 34 2 44 -5 4 -8 20 -9 34 -1 42 -34 103 -84 152 -38 39 -73 64
-83 58 -1 -1 -13 5 -27 12 -28 15 -67 18 -130 8z m55 -179 c4 -6 13 -8 20 -5
17 6 68 -40 60 -54 -3 -6 -1 -10 4 -10 16 0 13 -56 -4 -89 -16 -32 -57 -52
-100 -49 -35 2 -90 30 -90 46 0 5 -3 14 -7 18 -29 28 25 146 63 139 10 -2 21
0 24 6 8 12 22 12 30 -2z"/>
<path d="M2998 1992 c-10 -2 -18 -7 -18 -12 0 -5 -7 -7 -16 -3 -9 3 -19 2 -23
-3 -6 -9 -15 -15 -73 -52 -16 -9 -27 -21 -25 -26 2 -4 -10 -22 -25 -38 -15
-17 -26 -34 -23 -38 3 -5 1 -11 -5 -15 -5 -3 -10 -19 -10 -35 0 -16 -4 -31 -9
-34 -5 -3 -7 -18 -5 -33 12 -82 17 -103 25 -103 5 0 8 -3 7 -7 -8 -29 72 -116
132 -144 25 -11 53 -25 62 -30 24 -12 138 -12 138 1 0 6 8 10 18 10 10 0 22 3
26 8 4 4 11 7 14 7 15 1 57 29 80 54 34 37 80 131 77 161 -1 14 2 28 8 32 8 4
8 11 0 20 -5 7 -9 28 -7 46 1 17 -1 32 -6 32 -4 0 -10 13 -13 29 -7 32 -94
134 -108 125 -4 -2 -12 3 -17 11 -5 9 -15 18 -23 19 -8 2 -26 6 -40 10 -29 8
-116 13 -141 8z m82 -180 c0 -4 10 -8 21 -9 19 -2 70 -43 53 -43 -4 0 0 -8 8
-17 8 -10 14 -22 13 -28 -5 -31 -18 -65 -26 -65 -5 0 -9 -8 -9 -18 0 -10 -6
-20 -12 -21 -60 -8 -104 -8 -115 1 -7 6 -13 7 -13 4 0 -11 -25 17 -35 39 -5
11 -10 37 -10 58 -1 31 4 43 32 68 19 16 38 27 43 24 5 -3 11 -1 15 5 7 12 35
14 35 2z"/>
</g>
</svg>
