<?xml version="1.0" standalone="no"?>
<!DOCTYPE svg PUBLIC "-//W3C//DTD SVG 20010904//EN"
 "http://www.w3.org/TR/2001/REC-SVG-20010904/DTD/svg10.dtd">
<svg version="1.0" xmlns="http://www.w3.org/2000/svg"
 width="260.000000pt" height="260.000000pt" viewBox="0 0 260.000000 260.000000"
 preserveAspectRatio="xMidYMid meet">
<metadata>
Created by potrace 1.11, written by Peter Selinger 2001-2013
</metadata>
<g transform="translate(0.000000,260.000000) scale(0.100000,-0.100000)"
fill="#000000" stroke="none">
<path d="M1124 2545 c-203 -43 -398 -122 -502 -203 -21 -16 -57 -41 -83 -55
-67 -39 -198 -179 -267 -285 -69 -107 -139 -272 -176 -412 -19 -73 -25 -125
-27 -220 -4 -239 35 -390 169 -655 69 -136 84 -158 166 -244 120 -124 212
-197 324 -254 204 -106 346 -137 632 -137 227 0 286 12 456 95 266 129 445
308 582 580 71 143 88 218 97 445 4 78 3 74 27 106 82 103 61 279 -63 548 -65
141 -137 243 -262 373 -145 150 -306 247 -487 293 -47 11 -103 26 -125 32 -22
6 -110 13 -195 14 -132 2 -172 -1 -266 -21z"/>
</g>
</svg>
